<svg width="1402" height="524" viewBox="0 0 1402 524" fill="none" xmlns="http://www.w3.org/2000/svg">
<g clip-path="url(#clip0_2044_752)">
<path d="M6.6665 136.667V272.267L36.3998 271.6C55.8665 271.067 68.9332 270.133 74.6665 268.8C122.8 257.467 159.733 224.267 175.066 178.533C180.266 163.067 181.733 150.4 180.933 129.733C180 103.067 174 84.3999 159.2 61.5999C141.866 35.0666 115.333 15.7333 82.6665 5.73325C72.1332 2.53325 69.0665 2.26659 39.0665 1.59992L6.6665 1.06659V136.667Z" fill="white"/>
<path d="M324.8 3.46665C265.733 16.1333 223.2 63.8667 217.333 124.133C213.333 165.2 228.8 205.6 260 235.067C273.866 248.267 288.266 257.067 306 263.467C323.733 269.733 339.733 272 368.4 272H392V136.667V1.33332L363.066 1.46665C342.8 1.46665 331.2 2.13332 324.8 3.46665Z" fill="white"/>
<path d="M473.6 136.267L474 271.333H530.666C571.866 271.333 589.733 270.8 596 269.6C624.4 263.867 650.266 249.867 669.333 229.733C685.2 213.2 695.2 195.733 702.266 172.667C705.6 161.467 705.866 158.933 705.866 136.667C706 115.6 705.6 111.467 702.933 102.133C693.333 68.6666 673.466 41.0666 646.4 23.4666C633.466 15.0666 623.733 10.5333 608 5.59997L596.666 2.1333L534.933 1.59997L473.333 1.19997L473.6 136.267ZM583.6 42.8C605.6 45.7333 621.333 53.6 637.466 69.3333C667.733 99.0666 674.666 142.667 655.2 180.133C645.866 197.867 631.733 211.333 612.666 220.667C595.066 229.333 586.4 230.667 547.333 230.667H514.666V136.933C514.666 85.3333 515.066 42.6666 515.6 42.2666C517.066 40.8 572.266 41.2 583.6 42.8Z" fill="white"/>
<path d="M942.667 136.667V272H963.333H984V136.667V1.33332H963.333H942.667V136.667Z" fill="white"/>
<path d="M1018.67 136.667V272H1038.67H1058.67V264C1058.67 259.6 1058.93 256 1059.33 256C1059.6 256 1063.73 258 1068.27 260.533C1095.2 275.2 1126 275.6 1154.67 261.733C1165.2 256.667 1169.07 253.867 1178.67 244.133C1188.27 234.667 1191.33 230.533 1196.53 220C1210.13 192.4 1210.13 164.8 1196.67 136.667C1180.67 103.2 1144.13 81.8667 1107.33 84.5333C1092 85.6 1077.33 90.1333 1066.4 96.9333C1063.6 98.6667 1060.8 100 1060 100C1059.07 100 1058.67 83.3333 1058.67 50.6667V1.33332H1038.67H1018.67V136.667ZM1129.6 124C1158.8 132.933 1176 165.333 1166.93 194.267C1158.67 220.667 1131.2 238 1104.8 233.6C1092 231.6 1082.4 226.667 1073.47 217.733C1056 200.133 1051.6 176.267 1061.87 154C1065.47 146 1075.33 134.667 1082.93 129.867C1096.27 121.467 1114.13 119.2 1129.6 124Z" fill="white"/>
<path d="M804.666 85.8666C770.933 92.4 743.333 116.8 732.4 150C729.333 159.333 728.933 162.8 728.933 178C728.933 193.2 729.333 196.667 732.4 206C737.333 221.067 744.4 232.4 756 244.133C767.2 255.467 778.666 262.533 794.4 267.733C803.333 270.667 806.933 271.2 822 271.2C837.066 271.2 840.666 270.667 849.6 267.733C865.466 262.533 876.8 255.467 888 244.133C899.6 232.267 906.666 220.933 911.6 206C914.533 197.067 915.066 192.8 915.2 179.333C915.333 161.067 913.333 151.733 906 136.667C888.133 99.7333 845.066 78 804.666 85.8666ZM838.266 123.733C853.866 128.667 865.733 138.933 872.933 154.267C889.066 188 867.866 227.333 830.133 233.6C795.733 239.333 763.066 209.2 765.733 174C768.4 137.867 804 113.067 838.266 123.733Z" fill="white"/>
<path d="M1207.87 89.5999C1209.2 92.7999 1226.27 131.2 1245.87 175.2L1281.33 254.933L1271.73 276.533C1266.53 288.267 1261.33 299.333 1260.27 300.933C1255.33 308.667 1242.67 311.6 1232.53 307.333L1227.87 305.467L1225.47 311.067C1224.13 314.133 1220.53 322.267 1217.47 329.067C1214.4 336 1212.27 342 1212.67 342.667C1213.07 343.2 1218 345.733 1223.73 348.133C1233.07 352.267 1235.2 352.667 1247.33 352.667C1259.73 352.667 1261.33 352.4 1269.6 348.267C1279.73 343.333 1289.47 334.4 1293.6 326.133C1297.47 318.533 1400.13 89.1999 1400.93 86.2666C1401.6 84.1333 1400.13 83.9999 1379.47 84.2666L1357.2 84.6666L1332.53 140C1318.93 170.4 1306.93 197.467 1305.87 200L1303.87 204.667L1277.07 144.267L1250.27 83.9999H1227.87H1205.47L1207.87 89.5999Z" fill="white"/>
<path d="M353.333 394.933C353.333 395.2 364.133 423.067 377.2 456.667L401.066 518L408.933 518.4L416.8 518.8L440.533 458.4C453.6 425.2 464.533 397.2 464.933 396.267C465.466 395.067 463.2 394.667 456.266 394.667C450 394.667 446.8 395.2 446.4 396.267C446 397.2 437.733 419.733 428 446.267C418.266 472.933 409.866 494.667 409.466 494.667C409.066 494.667 400.533 472.267 390.533 444.933L372.4 395.333L362.8 394.933C357.6 394.667 353.333 394.8 353.333 394.933Z" fill="white"/>
<path d="M507.333 396.267C506.933 397.2 506.8 424.933 506.933 458L507.333 518L515.733 518.4L524 518.8V456.667V394.667H516C510.8 394.667 507.733 395.2 507.333 396.267Z" fill="white"/>
<path d="M610.666 396C597.733 398.133 586.933 405.6 582.533 415.333C579.466 422 579.333 434.4 582.133 441.067C586.4 451.333 594.266 456.667 614.666 463.333C627.866 467.6 634.133 471.867 636.8 478.267C640.533 486.933 635.333 498.133 625.733 502.133C615.333 506.533 597.466 502.267 590.933 494L588.4 490.8L582 496.533L575.6 502.133L581.333 507.067C597.466 520.8 627.6 522 642.933 509.333C650.133 503.467 654.666 493.333 654.666 483.467C654.533 466.133 644.133 455.067 622.4 449.333C619.2 448.4 612.933 446 608.533 443.867C602.133 440.933 599.733 438.933 598 435.2C593.733 426.267 597.333 416.8 606.666 412C616.4 407.067 632.4 409.6 639.2 417.2L641.866 420.133L647.6 414.4C653.066 409.067 653.2 408.667 650.933 406.267C647.333 402.267 637.333 397.733 628.666 396.133C620.133 394.533 619.333 394.533 610.666 396Z" fill="white"/>
<path d="M709.333 456.667V518.667H718H726.666V456.667V394.667H718H709.333V456.667Z" fill="white"/>
<path d="M828 396C808.4 399.333 792.8 411.2 784.266 429.2C780 437.867 779.466 440.4 778.933 452.533C778 474 783.333 488.667 796.933 501.467C815.6 519.067 844.933 523.333 869.066 511.733C899.333 497.333 911.2 459.067 895.466 427.2C883.733 403.6 856.8 391.067 828 396ZM858.933 413.6C872.266 419.733 880.933 431.733 884 448.4C886.666 462.533 881.6 480 872.266 489.733C858.8 503.733 839.6 507.333 822 499.467C812.133 495.067 806 488.933 801.066 478.933C796.933 470.667 796.666 469.067 796.666 456.667C796.666 445.067 797.2 442.4 800.133 436C808.666 417.733 823.2 408.8 842.8 409.867C848.533 410.133 854.133 411.467 858.933 413.6Z" fill="white"/>
<path d="M951.333 396.267C950.933 397.2 950.8 424.933 950.933 458L951.333 518L959.733 518.4L968 518.8V468.667C968 441.067 968.4 418.8 969.067 419.2C969.6 419.467 984.4 442 1002 469.2L1034 518.667H1044.4H1054.67V456.667V394.667H1046.67H1038.67L1038.4 444.267L1038 493.867L1005.87 444.533L973.733 395.333L962.8 394.933C954.933 394.667 951.733 395.067 951.333 396.267Z" fill="white"/>
</g>
<defs>
<clipPath id="clip0_2044_752">
<rect width="1401.33" height="524" fill="white"/>
</clipPath>
</defs>
</svg>
