<svg width="134" height="601" viewBox="0 0 134 601" fill="none" xmlns="http://www.w3.org/2000/svg">
<path d="M100.667 67.3333C100.667 48.924 85.7433 34 67.3333 34C48.9233 34 34 48.924 34 67.3333C34 85.7427 48.9233 100.667 67.3333 100.667C85.7433 100.667 100.667 85.7427 100.667 67.3333Z" stroke="white" stroke-width="66.6667" stroke-linecap="round" stroke-linejoin="round"/>
<path d="M100.667 300.667C100.667 282.257 85.7433 267.333 67.3333 267.333C48.9233 267.333 34 282.257 34 300.667C34 319.077 48.9233 334 67.3333 334C85.7433 334 100.667 319.077 100.667 300.667Z" stroke="white" stroke-width="66.6667" stroke-linecap="round" stroke-linejoin="round"/>
<path d="M100.667 534C100.667 515.59 85.7433 500.667 67.3333 500.667C48.9233 500.667 34 515.59 34 534C34 552.41 48.9233 567.333 67.3333 567.333C85.7433 567.333 100.667 552.41 100.667 534Z" stroke="white" stroke-width="66.6667" stroke-linecap="round" stroke-linejoin="round"/>
</svg>
