<svg width="19" height="20" viewBox="0 0 19 20" fill="none" xmlns="http://www.w3.org/2000/svg">
<path d="M7.0314 6.2488L7.5 2.5V1.57282C7.5 1.25646 7.75646 1 8.07282 1C9.29091 1 10.443 1.5537 11.2039 2.50488L11.8112 3.26395C11.9334 3.41675 12 3.60661 12 3.80229V8H14.5858C14.851 8 15.1054 8.10536 15.2929 8.29289L17.7071 10.7071C17.8946 10.8946 18 11.149 18 11.4142V12.901C18 12.9668 17.9935 13.0325 17.9806 13.0971L17.5594 15.2031C17.5207 15.3967 17.4255 15.5745 17.2859 15.7141L16.6669 16.3331C16.5572 16.4428 16.4744 16.5767 16.4253 16.724L16.1085 17.6745C16.0382 17.8855 15.8995 18.067 15.7145 18.1903L14.7519 18.8321C14.5877 18.9416 14.3946 19 14.1972 19H7.23607C7.08082 19 6.92771 18.9639 6.78885 18.8944L4.21115 17.6056C4.07229 17.5361 3.91918 17.5 3.76393 17.5H2C1.44772 17.5 1 17.0523 1 16.5V12.1594C1 11.7594 1.2384 11.3978 1.60608 11.2403L4.24282 10.1102C4.41104 10.0381 4.55625 9.92124 4.66263 9.77231L6.85286 6.706C6.94943 6.5708 7.01079 6.41367 7.0314 6.2488Z" stroke="white" stroke-width="2"/>
</svg>
