<svg width="32" height="32" viewBox="0 0 32 32" fill="none" xmlns="http://www.w3.org/2000/svg">
<path fill-rule="evenodd" clip-rule="evenodd" d="M22.1866 14.0933C22.1866 18.5631 18.5631 22.1866 14.0933 22.1866C9.62349 22.1866 6 18.5631 6 14.0933C6 9.62349 9.62349 6 14.0933 6C18.5631 6 22.1866 9.62349 22.1866 14.0933ZM20.4811 21.9085C18.7411 23.3323 16.517 24.1866 14.0933 24.1866C8.51892 24.1866 4 19.6677 4 14.0933C4 8.51892 8.51892 4 14.0933 4C19.6677 4 24.1866 8.51892 24.1866 14.0933C24.1866 16.517 23.3323 18.7411 21.9085 20.4811L28 26.5726L26.5726 28L20.4811 21.9085Z" fill="white"/>
</svg>
