<svg width="265" height="96" viewBox="0 0 265 96" fill="none" xmlns="http://www.w3.org/2000/svg">
<path d="M59.1738 17.5429C60.077 18.8266 60.7114 20.2377 61.0768 21.7776L62.0447 21.4286L59.8834 8.07185C59.4528 8.39143 59.0068 8.63087 58.5443 8.79018C58.0818 8.95045 57.7217 9.03686 57.4639 9.05135C57.2056 9.06535 56.9155 9.07307 56.5925 9.07307H37.2371H36.301C36.2576 9.07307 36.0804 9.06052 35.769 9.03445C35.4567 9.00886 35.2148 8.95721 35.0435 8.88094C34.6129 8.6497 34.258 8.38032 33.979 8.07185L31.656 21.4305L32.6234 21.6623C32.817 20.7904 33.2365 19.737 33.8815 18.5055C34.4193 17.4787 34.9571 16.6957 35.4948 16.157C36.5699 15.1306 37.5702 14.4051 38.4951 13.9817C39.4191 13.5583 40.5275 13.3464 41.8179 13.3464V40.8091C41.8179 41.9103 41.7745 42.729 41.6885 43.2673C41.6026 43.8046 41.3337 44.3298 40.8819 44.842C40.1293 45.6873 39.3337 46.1092 38.4951 46.1092C38.3016 46.1092 38.1505 46.1223 38.0433 46.1479V47.6111H55.7221V46.1092C55.0332 46.1092 54.4636 46.0141 54.0122 45.8215C53.5604 45.6289 53.1462 45.2509 52.7696 44.6871C52.3936 44.1227 52.1459 43.4816 52.0281 42.7638C51.9094 42.0464 51.8505 41.2388 51.8505 40.3413V39.5723L51.8186 13.3464C53.3668 13.3464 54.7267 13.6867 55.8993 14.3664C57.0714 15.0471 58.1624 16.1058 59.1738 17.5429Z" fill="white"/>
<path d="M108.846 29.4852C107.966 28.9465 107.15 28.5487 106.399 28.2919C105.648 28.0355 105.08 27.8941 104.693 27.868C104.308 27.8434 103.986 27.8299 103.728 27.8299L106.811 17.0085L110.423 30.6405C110.015 30.2808 109.489 29.8961 108.846 29.4852ZM79.2664 22.7402C78.019 24.0244 76.5775 24.9995 74.9434 25.6667L73.8147 26.09V16.4268C73.8147 15.7857 73.8953 15.2272 74.0566 14.7517C74.2178 14.2771 74.5022 13.9378 74.9111 13.7316C75.6424 13.3725 76.4274 13.1929 77.2664 13.1929C78.4921 13.1929 79.503 13.5265 80.2986 14.1936C81.223 14.9636 81.6855 16.017 81.6855 17.3508C81.6855 19.2755 80.8793 21.0723 79.2664 22.7402ZM134.215 47.6116V46.1112C133.705 46.0093 133.291 45.8486 132.973 45.6308C132.654 45.4131 132.405 45.0993 132.224 44.6885C132.044 44.2787 131.916 43.8495 131.842 43.401C131.767 42.9521 131.73 42.408 131.73 41.7664L131.763 16.003L146.574 36.7675C147.433 37.9725 148.013 38.9211 148.314 39.6129C148.764 40.6126 148.99 41.6771 148.99 42.8048C148.99 44.4973 148.463 45.5478 147.409 45.9577C147.129 46.0605 146.85 46.1112 146.571 46.1112V47.6116H156.312V46.1107C155.861 46.0605 155.447 45.9133 155.07 45.669C154.694 45.4262 154.404 45.0989 154.199 44.6885C153.994 44.2782 153.861 43.7974 153.796 43.2465C153.731 42.6952 153.699 42.2139 153.699 41.8041V16.1883C153.699 15.471 153.748 14.6822 153.845 13.8233C153.942 12.964 154.183 12.2394 154.571 11.6505C154.893 11.1629 155.248 10.8554 155.635 10.7275C155.894 10.6758 156.151 10.6246 156.409 10.5735V9.07356H146.667V10.5744C147.189 10.6517 147.629 10.7868 147.989 10.979C148.348 11.1711 148.657 11.4796 148.918 11.903C149.179 12.3263 149.343 12.7183 149.407 13.077C149.472 13.4371 149.506 13.9629 149.506 14.6556V15.1176V23.8187L143.021 14.1169C142.807 13.7833 142.656 13.5139 142.57 13.3078C142.377 12.8723 142.279 12.4745 142.279 12.1149C142.279 11.8585 142.355 11.608 142.506 11.3637C142.656 11.1204 142.812 10.9283 142.973 10.7868C143.134 10.6459 143.322 10.5744 143.537 10.5744V9.07356H125.085V10.5744C125.88 10.7038 126.505 11.062 126.956 11.6514C127.171 11.9339 127.321 12.447 127.408 13.19C127.494 13.9339 127.537 14.7155 127.537 15.5357V16.4978V40.0734C127.537 41.3812 127.44 42.5538 127.247 43.5922C127.061 44.5857 126.757 45.2529 126.335 45.6004C126.248 45.5386 126.161 45.4783 126.069 45.4001C125.811 45.1824 125.542 44.8034 125.262 44.2651C125.176 44.086 125.058 43.8427 124.907 43.5347L116.52 13.4975C116.391 13.0365 116.315 12.7801 116.294 12.7289C116.23 12.4726 116.197 12.2414 116.197 12.0362C116.197 11.8315 116.24 11.6263 116.326 11.4212C116.52 10.9857 116.875 10.7675 117.391 10.7675V9.07356H103.1V10.5363C103.25 10.5875 103.395 10.6517 103.535 10.7284C103.675 10.8057 103.814 10.9664 103.954 11.2102C104.094 11.454 104.164 11.7557 104.164 12.1149C104.164 12.3717 104.121 12.6536 104.035 12.9616C103.949 13.2696 103.852 13.5776 103.745 13.8861L94.8081 41.2586C94.5499 42.1053 94.2805 42.7662 94.0015 43.2412C93.9363 43.3523 93.8619 43.4652 93.7813 43.5792C93.5482 43.0221 93.3024 42.3742 93.0413 41.611C91.8798 38.1762 91.0518 35.958 90.557 34.9577C89.6321 33.1121 88.7448 31.4515 87.8961 29.9772C87.046 28.5033 86.0515 26.9064 84.9117 25.1883C85.0836 25.1883 85.7068 24.8165 86.7829 24.0731C88.2022 23.0733 89.3526 21.9838 90.2345 20.8044C91.4603 19.1375 92.0733 17.3556 92.0733 15.4575C92.0733 15.2533 92.0516 14.9197 92.0091 14.4577C91.8156 12.7149 91.0572 11.3806 89.7344 10.4581C88.4122 9.53555 86.4923 9.07356 83.9762 9.07356H61.394V10.5744C61.8459 10.5744 62.233 10.6705 62.5555 10.8636C62.878 11.0562 63.1628 11.4086 63.4105 11.9208C63.6576 12.434 63.8242 13.3696 63.9106 14.729C63.9318 15.1639 63.9425 15.779 63.9425 16.5741L63.8787 41.7645C63.8787 42.6359 63.8141 43.3407 63.6847 43.8789C63.5558 44.4182 63.2758 44.8922 62.8461 45.3021C62.5237 45.6096 62.2495 45.822 62.0235 45.9369C61.7976 46.0528 61.5017 46.1097 61.1362 46.1097V47.6116H76.5244V46.1097C75.9219 45.9557 75.5454 45.8404 75.3953 45.7636C75.0723 45.5845 74.7392 45.2374 74.395 44.7233C74.1372 44.339 73.9596 43.8833 73.8625 43.3571C73.766 42.8314 73.7172 42.1579 73.7172 41.3358V30.4792L75.4271 29.5166C76.0726 30.569 76.7228 31.634 77.3789 32.7124C78.0349 33.7899 78.578 34.7781 79.0082 35.6765C80.4704 38.8081 81.363 40.7971 81.6855 41.6443C82.1586 42.9019 82.3956 43.877 82.3956 44.5698C82.3956 45.0839 82.2663 45.4295 82.0085 45.6091C81.5354 45.9432 81.0082 46.1484 80.4279 46.2256V47.6116H90.809H96.6865H101.519V46.187C101.11 46.1097 100.745 45.9625 100.422 45.7448C100.1 45.5266 99.809 45.1862 99.5512 44.7242C99.443 44.5196 99.3899 44.1469 99.3899 43.6081C99.3899 42.505 99.5304 41.4913 99.8119 40.5673L102.089 32.7453C102.821 32.7453 103.752 32.8669 104.882 33.1102C106.012 33.3535 106.867 33.6287 107.448 33.9362C108.934 34.7298 110.28 35.9329 111.485 37.5462C112.604 39.0321 113.24 40.3771 113.391 41.5801C113.434 41.8364 113.455 42.1946 113.455 42.6556C113.455 44.0387 113.025 45.038 112.165 45.6521C111.885 45.8312 111.466 45.9852 110.907 46.1131V47.6116H124.827H127.617H134.215Z" fill="white"/>
<path d="M215.128 47.6884C215.58 47.7396 215.988 47.8294 216.354 47.9578L217.45 48.3425L221.644 33.5979L220.548 32.9432C220.182 34.6367 219.322 36.3949 217.967 38.2178C216.762 39.8601 215.504 41.1307 214.193 42.0286C213.31 42.6195 212.337 43.0941 211.273 43.4537C210.208 43.8134 209.17 43.9925 208.16 43.9925C207.235 43.9925 206.418 43.8327 205.708 43.5112C204.999 43.1906 204.45 42.7098 204.062 42.0672C203.676 41.4262 203.428 40.8102 203.32 40.2193C203.213 39.6294 203.159 38.9105 203.159 38.0638V37.4473V36.5233V25.5123H207.289C207.761 25.5123 208.342 25.686 209.03 26.0322C209.719 26.3788 210.331 26.835 210.87 27.3993C211.406 27.9642 211.891 28.7341 212.321 29.7093C212.665 30.5049 212.88 31.1595 212.967 31.6722L214.193 31.4414L212.031 16.773L211.063 17.1201V17.697C211.063 18.801 210.698 19.7376 209.97 20.5076C209.606 20.8672 209.226 21.1178 208.83 21.2583C208.434 21.3997 208.021 21.4702 207.594 21.4702H203.063V17.2736C203.063 16.479 203.153 15.7858 203.337 15.1944C203.519 14.6045 203.837 14.1044 204.289 13.6935C204.977 13.0771 206.042 12.7696 207.482 12.7696C208.773 12.7696 210.085 13.0259 211.417 13.5391C212.751 14.0527 213.902 14.8101 214.87 15.8109C216.547 17.5821 217.633 19.7376 218.128 22.2783L219.193 21.3162L216.837 8.30314C216.471 8.475 216.181 8.58506 215.967 8.63382C215.923 8.63382 215.633 8.6821 215.096 8.77961C214.063 8.97609 213.149 9.07361 212.353 9.07361H211.773H190.481V10.5745C190.955 10.5745 191.321 10.6199 191.578 10.7092C191.836 10.7999 192.094 11.0176 192.353 11.3638C192.61 11.7109 192.766 12.0565 192.82 12.4036C192.873 12.7498 192.901 13.2571 192.901 13.9248V14.3481V41.6825C192.901 42.4786 192.852 43.1264 192.755 43.627C192.659 44.1271 192.438 44.6215 192.094 45.1091C191.836 45.4431 191.616 45.6671 191.433 45.7825C191.25 45.8984 190.836 46.02 190.191 46.1484V47.6116H213.708C214.203 47.6116 214.676 47.6367 215.128 47.6884Z" fill="white"/>
<path d="M187.199 30.3933C187.199 29.5992 187.247 28.946 187.344 28.4328C187.441 27.9211 187.661 27.4466 188.005 27.0111C188.651 26.1398 189.414 25.7043 190.296 25.7043V24.3956H174.844V25.8202H175.36C175.984 25.8202 176.542 26.1021 177.037 26.665C177.295 26.9725 177.473 27.2926 177.57 27.6262C177.667 27.9593 177.715 28.5608 177.715 29.4316V38.6126C177.715 40.1236 177.434 41.3281 176.875 42.2245C176.209 43.275 175.177 43.7993 173.779 43.7993C170.638 43.7993 168.101 41.9267 166.166 38.1786C164.509 34.9963 163.682 31.4674 163.682 27.5909C163.682 27.2834 163.687 27.0266 163.698 26.8214C163.708 26.6162 163.724 26.3976 163.746 26.1663C164.047 22.3941 164.876 19.3137 166.23 16.9265C167.864 14.0522 170.091 12.615 172.908 12.615C174.715 12.615 176.768 13.246 179.07 14.5093C179.994 15.0254 180.919 15.9402 181.843 17.2543C183.048 18.956 183.833 20.4254 184.199 21.6623L185.005 21.1607L183.683 7.91785C183.296 8.2775 182.92 8.63666 182.554 8.99583C182.08 9.30383 181.467 9.45782 180.715 9.45782C180.048 9.45782 179.317 9.35596 178.521 9.14983C176.972 8.76459 175.596 8.48943 174.392 8.32191C173.187 8.15585 171.897 8.07185 170.521 8.07185C167.982 8.07185 165.65 8.45081 163.521 9.20776C161.391 9.9652 159.52 11.1653 157.907 12.8072C156.703 14.0604 155.724 15.4647 154.963 17.0148V36.4731C155.492 37.7132 156.116 38.8868 156.842 39.988C158.821 42.9912 161.241 45.0699 164.1 46.2251C166.402 47.1491 169.488 47.6111 173.36 47.6111H189.489V46.1508C188.974 45.9968 188.58 45.8244 188.312 45.6318C188.043 45.4397 187.801 45.1133 187.587 44.6518C187.37 44.1913 187.242 43.7423 187.199 43.3069V41.8466V30.3933Z" fill="white"/>
<path d="M2.47941 56.4082C2.69472 56.36 2.96844 56.3368 3.29864 56.3368C5.71143 56.722 8.07401 57.1087 10.3854 57.4944C12.6964 57.8811 14.7794 58.0742 16.6337 58.0742C18.9446 58.0742 23.4685 57.5586 26.0082 56.5289C29.107 55.2738 31.3093 53.505 33.1891 51.2196C35.4755 48.4192 36.6891 45.0568 36.6891 41.1311C36.6891 38.1477 36.0205 35.1933 34.3704 32.6791C33.6671 31.6079 32.7412 30.7186 31.696 29.9877C29.7886 28.6558 27.6032 27.8168 25.4217 27.0516C22.9249 26.1755 20.4474 25.2568 17.967 24.3323C16.2238 23.682 14.4309 23.3398 13.071 21.9456C11.0811 19.905 11.6222 16.5755 13.449 14.616C14.2967 13.706 15.7802 12.9983 16.9706 12.7168C21.2971 11.6944 24.3789 13.7079 28.3616 17.5699C29.3001 18.4804 30.2926 20.5268 30.2926 20.5268L32.5051 8.09593C32.2512 8.25765 31.193 8.94847 30.7353 9.30281C29.8833 9.96225 28.4534 9.10826 27.6061 8.80172C26.4635 8.38848 25.3 8.03318 24.1183 7.74932C21.7421 7.17967 19.3047 6.90643 16.862 6.90643C14.946 6.90643 12.8571 7.04692 10.9918 7.48091C9.62171 7.80049 8.16187 8.49131 6.94872 9.19081C3.01671 11.4578 1.13591 15.484 0.289168 19.7785C-0.228824 22.4071 -0.0815849 25.1245 0.996881 27.5986C2.52962 31.1159 5.25185 34.1042 8.82324 35.5795C8.82324 35.5795 20.9992 39.6355 20.9997 39.6355C21.8788 39.9286 22.8983 40.7893 23.4342 41.5308C25.3666 44.2019 24.4311 48.6451 22.0516 50.7282C18.3194 53.9964 11.6034 52.7905 7.92098 50.0214C5.90212 48.5022 4.83524 46.2159 3.97304 43.9103C3.92235 43.7766 3.00706 41.245 3.05726 41.245H1.24695L0 58.0742C0.27903 57.8159 1.42508 57.0841 1.71763 56.8427C2.00921 56.6013 2.26362 56.4575 2.47941 56.4082Z" fill="white"/>
<path d="M242.607 26.1018C241.012 27.747 239.17 28.9974 237.081 29.8528L235.638 30.3959V18.007C235.638 17.1849 235.741 16.4695 235.947 15.8603C236.153 15.2515 236.517 14.8156 237.04 14.552C237.974 14.0915 238.978 13.8617 240.05 13.8617C241.617 13.8617 242.91 14.2894 243.927 15.1448C245.108 16.132 245.699 17.4813 245.699 19.1917C245.699 21.6595 244.669 23.9627 242.607 26.1018ZM253.639 35.3788C252.552 33.4889 251.28 31.4425 249.823 29.2397C250.043 29.2397 250.84 28.7627 252.216 27.8093C254.03 26.5281 255.501 25.1315 256.628 23.619C258.195 21.4829 258.979 19.198 258.979 16.7644C258.979 16.5023 258.95 16.0751 258.896 15.4832C258.649 13.2481 257.68 11.5382 255.989 10.3554C254.298 9.1727 251.844 8.58037 248.628 8.58037H219.761V10.5046C220.338 10.5046 220.833 10.6282 221.245 10.8754C221.658 11.1221 222.022 11.5739 222.338 12.2314C222.654 12.888 222.868 14.0876 222.977 15.8303C223.005 16.3884 223.019 17.1777 223.019 18.1958L222.937 50.4904C222.937 51.6075 222.854 52.5107 222.689 53.2011C222.523 53.8919 222.166 54.5001 221.617 55.0254C221.205 55.4203 220.854 55.6911 220.565 55.8393C220.277 55.988 219.899 56.0609 219.431 56.0609V57.9861H239.101V56.0609C238.332 55.8634 237.85 55.7157 237.659 55.6167C237.246 55.3865 236.82 54.9423 236.38 54.2844C236.05 53.79 235.823 53.2064 235.699 52.5315C235.576 51.8576 235.514 50.9939 235.514 49.9406V36.0219L237.699 34.7884C238.524 36.1377 239.356 37.503 240.194 38.8846C241.033 40.2667 241.727 41.5339 242.277 42.6853C244.146 46.6998 245.288 49.2493 245.699 50.3354C246.304 51.9478 246.607 53.1982 246.607 54.0864C246.607 54.7454 246.442 55.1895 246.113 55.4193C245.507 55.8475 244.834 56.1106 244.092 56.2086V57.9861H264.876V56.3095C264.105 56.1444 263.459 55.9315 262.937 55.6684C262.222 55.3073 261.315 53.5158 260.216 50.2939C258.731 45.8893 257.672 43.0464 257.04 41.7637C255.858 39.3973 254.724 37.2693 253.639 35.3788Z" fill="white"/>
<path d="M69.8598 54.6211C69.4291 54.9436 68.9836 55.185 68.5216 55.3453C68.0586 55.5065 67.6985 55.5944 67.4402 55.6084C67.1824 55.6233 66.8923 55.6301 66.5698 55.6301H47.2134H46.2778C46.2349 55.6301 46.0572 55.6175 45.7458 55.5915C45.4335 55.5659 45.1916 55.5142 45.0198 55.4355C44.5892 55.2038 44.2344 54.9315 43.9553 54.6211L41.6323 68.0875L42.6002 68.3211C42.7943 67.4416 43.2133 66.3805 43.8588 65.1388C44.3956 64.1038 44.9334 63.3145 45.4712 62.7714C46.5467 61.7369 47.5465 61.0055 48.4715 60.5783C49.3959 60.152 50.5038 59.9382 51.7942 59.9382V87.6215C51.7942 88.7314 51.7508 89.5573 51.6658 90.0995C51.5794 90.6416 51.3105 91.1717 50.8591 91.6872C50.1056 92.5388 49.3105 92.9651 48.4715 92.9651C48.2779 92.9651 48.1273 92.9781 48.0201 93.0037V94.4785H65.6984V92.9651C65.01 92.9651 64.4399 92.869 63.9885 92.6745C63.5367 92.4804 63.123 92.0995 62.7469 91.5308C62.3699 90.9622 62.1227 90.3162 62.0049 89.5921C61.8862 88.8689 61.8273 88.0545 61.8273 87.1504V86.3751L61.7949 59.9382C63.3436 59.9382 64.7035 60.2814 65.8756 60.9669C67.0477 61.6519 68.1392 62.7193 69.1501 64.1685C70.0533 65.4623 70.6877 66.8849 71.0536 68.437L72.0215 68.0855L69.8598 54.6211Z" fill="white"/>
<path d="M91.2372 58.7612C91.6263 58.8365 91.9174 58.8998 92.112 58.95C92.6517 59.1252 93.0191 59.3627 93.2136 59.6644C93.4941 60.1153 93.694 60.6043 93.8132 61.1315C93.9315 61.6577 93.9913 62.5976 93.9913 63.9527V67.4131H84.3035V63.8397C84.3035 62.1096 84.6375 60.7299 85.3076 59.7021C85.5451 59.3506 85.869 59.1064 86.2794 58.9688C86.6897 58.8312 87.0248 58.7612 87.2845 58.7612V57.2941H71.6665V58.7612C72.1633 58.8365 72.5736 58.9553 72.898 59.1184C73.2219 59.2816 73.5135 59.5703 73.7723 59.984C74.0315 60.3982 74.1937 60.8052 74.2584 61.2059C74.3236 61.6075 74.3559 62.2216 74.3559 63.0495V63.5766L74.4206 88.1772C74.4206 89.0036 74.312 89.876 74.0967 90.7908C73.8804 91.707 73.6646 92.2767 73.4483 92.5031C73.038 92.9038 72.7517 93.1485 72.59 93.2364C72.4278 93.3243 72.1309 93.4184 71.6988 93.5183V94.9478H87.187V93.4807C86.3006 93.4807 85.5668 93.0921 84.9837 92.3163C84.681 91.891 84.4918 91.4777 84.4165 91.0771C84.3407 90.6764 84.3035 90.126 84.3035 89.4256V71.2495H93.9262V89.4999C93.9262 90.1014 93.8779 90.6329 93.7809 91.0959C93.6833 91.5588 93.5052 91.9788 93.246 92.3539C92.7058 93.1056 91.9826 93.4807 91.075 93.4807V94.9478H106.79V93.4807C105.969 93.4807 105.321 93.2055 104.846 92.6537C104.608 92.353 104.43 91.8958 104.311 91.2827C104.192 90.6691 104.133 89.9986 104.133 89.2716L104.068 63.7195C104.068 62.894 104.117 62.18 104.214 61.5785C104.311 60.977 104.51 60.4252 104.814 59.9246C105.116 59.424 105.504 59.0977 105.98 58.948C106.26 58.8978 106.552 58.8346 106.855 58.7593V57.2941H91.2372V58.7612Z" fill="white"/>
<path d="M108.58 58.7593C109.185 58.8602 109.649 58.9789 109.974 59.1165C110.298 59.2541 110.545 59.4617 110.719 59.7368C111.043 60.2379 111.248 60.8013 111.334 61.4274C111.421 62.0545 111.464 62.9061 111.464 63.9826V89.3845C111.464 90.0107 111.415 90.5504 111.318 91.0008C111.221 91.4517 111.031 91.8644 110.751 92.2405C110.168 93.0674 109.444 93.4807 108.58 93.4807V94.9478H124.295V93.4807C123.884 93.4807 123.517 93.387 123.193 93.1987C122.87 93.011 122.589 92.7792 122.351 92.5036C122.113 92.2275 121.935 91.7833 121.816 91.1697C121.697 90.5557 121.638 89.8856 121.638 89.1596V63.8697C121.638 62.9438 121.676 62.1858 121.751 61.5974C121.827 61.0079 122.016 60.4755 122.319 59.9999C122.534 59.6495 122.761 59.3926 122.999 59.23C123.236 59.0668 123.69 58.9099 124.36 58.7593V57.2941H108.58V58.7593Z" fill="white"/>
<path d="M155.22 92.0918C155.015 91.6911 154.88 91.2214 154.816 90.6831C154.75 90.1449 154.719 89.6742 154.719 89.2735V64.2457C154.719 63.5453 154.767 62.7743 154.864 61.9348C154.961 61.0958 155.204 60.3886 155.592 59.8126C155.917 59.3362 156.274 59.0354 156.662 58.9104L157.44 58.7602V57.2941H147.654V58.7612C148.179 58.8365 148.622 58.9688 148.982 59.1561C149.342 59.3448 149.654 59.6456 149.917 60.0593C150.179 60.4726 150.342 60.8554 150.408 61.2059C150.473 61.5578 150.506 62.0714 150.506 62.7487V63.2001V71.7014L143.993 62.2216C143.778 61.8962 143.625 61.6331 143.54 61.4323C143.344 61.006 143.247 60.6179 143.247 60.2659C143.247 60.0154 143.323 59.7711 143.475 59.5326C143.625 59.2946 143.782 59.1064 143.945 58.9688C144.107 58.8312 144.295 58.7612 144.512 58.7612V57.2941H125.978V58.7612C126.777 58.8877 127.404 59.2372 127.857 59.8136C128.073 60.0888 128.224 60.5903 128.311 61.3164C128.397 62.0434 128.441 62.8071 128.441 63.6085V64.5484V87.5829C128.441 88.8607 128.343 90.0063 128.149 91.0206C127.955 92.0353 127.631 92.7054 127.177 93.0307C126.917 93.2065 126.712 93.3127 126.561 93.3503C126.41 93.3885 126.129 93.4324 125.719 93.4826V94.9478H135.147V93.4826C134.636 93.3827 134.22 93.2253 133.9 93.0129C133.58 92.8 133.329 92.4934 133.148 92.0928C132.967 91.6911 132.839 91.2726 132.765 90.8342C132.69 90.3954 132.653 89.8639 132.653 89.2368L132.685 64.0647L147.562 84.3528C148.424 85.5302 149.007 86.4571 149.308 87.1335C149.761 88.1101 149.987 89.1489 149.987 90.2511C149.987 91.905 149.458 92.9318 148.399 93.3315C148.118 93.4324 147.837 93.4826 147.557 93.4826V94.9478H157.342V93.4816C156.889 93.4324 156.473 93.2885 156.095 93.0505C155.717 92.8121 155.426 92.4925 155.22 92.0918Z" fill="white"/>
<path d="M214.832 72.6025L207.057 69.706C205.696 69.2054 204.691 68.5527 204.043 67.7504C203.524 67.0991 203.265 66.3586 203.265 65.5311C203.265 64.9794 203.34 64.4532 203.493 63.9516C203.578 63.6499 203.719 63.2994 203.914 62.8982C204.216 62.246 204.68 61.7633 205.307 61.45C205.932 61.1362 206.668 60.9798 207.51 60.9798C208.482 60.9798 209.497 61.1806 210.556 61.5813C211.614 61.9829 212.553 62.5101 213.374 63.1613C214.39 63.9636 215.329 65.3057 216.194 67.1865C216.561 67.9637 216.776 68.5406 216.842 68.9167L218.008 68.503L216.907 56.2778C216.691 56.4038 216.388 56.6036 216 56.8793C215.481 57.181 214.984 57.406 214.509 57.5571C214.444 57.5817 214.325 57.5937 214.153 57.5937C212.684 57.2684 211.258 56.9425 209.875 56.6162C208.492 56.2908 207.239 56.1276 206.116 56.1276C205.253 56.1276 204.431 56.2155 203.655 56.3907C200.457 57.1433 197.876 58.5346 195.91 60.5656C193.707 62.8485 192.605 65.632 192.605 68.9167C192.605 71.2995 193.231 73.3305 194.484 75.0104C195.629 76.5398 197.228 77.6941 199.28 78.4708L207.834 81.7439C208.611 82.0446 209.232 82.5394 209.697 83.2298C210.161 83.9187 210.394 84.7278 210.394 85.6556C210.394 86.0573 210.372 86.3706 210.329 86.5955C210.07 88.1007 209.357 89.2671 208.191 90.0935C207.024 90.9215 205.62 91.3357 203.978 91.3357C202.487 91.3357 200.959 90.9591 199.394 90.207C197.826 89.4544 196.472 88.3769 195.327 86.9721C194.527 85.994 193.825 84.6645 193.221 82.9845C192.746 81.6816 192.476 80.6528 192.411 79.9002L191.245 80.0504L192.508 95.6239C192.746 95.4226 192.989 95.2286 193.237 95.0403C193.485 94.8525 193.702 94.7391 193.885 94.7014C194.068 94.6647 194.3 94.6459 194.581 94.6459C196.634 94.9466 198.642 95.2474 200.608 95.5481C202.574 95.8489 204.346 96 205.922 96C207.888 96 209.951 95.5984 212.111 94.796C214.746 93.818 216.863 92.4397 218.462 90.6584C220.406 88.4768 221.378 85.8564 221.378 82.7967C221.378 80.2386 220.8 78.0947 219.645 76.3646C218.489 74.6344 216.885 73.3802 214.832 72.6025Z" fill="white"/>
<path d="M189.034 91.989C188.818 91.5279 188.689 91.079 188.646 90.6435V89.1832V77.73C188.646 76.9358 188.694 76.2827 188.791 75.7705C188.888 75.2578 189.108 74.7832 189.452 74.3478C190.098 73.4774 190.861 73.042 191.743 73.042V71.7323H176.291V73.1569H176.807C177.431 73.1569 177.989 73.4388 178.484 74.0026C178.742 74.3101 178.92 74.6297 179.017 74.9623C179.114 75.2964 179.162 75.8979 179.162 76.7683V85.9498C179.162 87.4613 178.882 88.6652 178.323 89.5612C177.656 90.6112 176.624 91.1364 175.226 91.1364C172.086 91.1364 169.548 89.2634 167.613 85.5153C165.956 82.333 165.129 78.8041 165.129 74.9276C165.129 74.6201 165.134 74.3637 165.145 74.1581C165.155 73.9529 165.171 73.7347 165.193 73.504C165.494 69.7308 166.323 66.6513 167.678 64.2636C169.311 61.3898 171.538 59.9522 174.355 59.9522C176.162 59.9522 178.215 60.5836 180.517 61.8465C181.441 62.3621 182.366 63.2774 183.291 64.5919C184.496 66.2926 185.28 67.7626 185.646 68.9989L186.452 68.4973L185.13 55.2545C184.743 55.6147 184.367 55.9738 184.001 56.3335C183.528 56.6405 182.914 56.7955 182.162 56.7955C181.496 56.7955 180.764 56.6926 179.968 56.487C178.42 56.1022 177.043 55.8261 175.839 55.6591C174.634 55.492 173.344 55.4095 171.968 55.4095C169.43 55.4095 167.097 55.7884 164.968 56.5444C162.838 57.3014 160.967 58.502 159.354 60.1443C158.15 61.3975 157.171 62.8014 156.41 64.3515V83.8107C156.939 85.0504 157.564 86.2235 158.289 87.3246C160.268 90.3278 162.688 92.4066 165.548 93.5618C167.849 94.4858 170.935 94.9478 174.807 94.9478H190.936V93.4874C190.421 93.3334 190.028 93.1611 189.759 92.9685C189.49 92.7773 189.248 92.45 189.034 91.989Z" fill="white"/>
<path d="M0 67.0718H38.8615V63.553H0V67.0718Z" fill="white"/>
<path d="M219.812 67.0718H264.95V63.553H219.812V67.0718Z" fill="white"/>
<path d="M259.318 0.000139167H0V3.18774H259.318V0.000139167Z" fill="white"/>
</svg>
